<?xml version="1.0" standalone="no"?>
<!DOCTYPE svg PUBLIC "-//W3C//DTD SVG 1.1//EN" "http://www.w3.org/Graphics/SVG/1.1/DTD/svg11.dtd" >
<svg xmlns="http://www.w3.org/2000/svg">
<metadata>Generated by IcoMoon</metadata>
<defs>
<font id="icomoon" horiz-adv-x="1024">
<font-face units-per-em="1024" ascent="960" descent="-64" />
<missing-glyph horiz-adv-x="1024" />
<glyph unicode="&#x20;" horiz-adv-x="512" d="" />
<glyph unicode="&#xe900;" horiz-adv-x="1600" d="M240.927 680.373c2.921 30.707 10.666 58.916 22.497 84.87l-0.674-1.65q4.925 11.003 10.842 21.521c0.121 0.221 0.193 0.483 0.193 0.763 0 0.888-0.719 1.607-1.607 1.607-0.569 0-1.069-0.296-1.355-0.742l-0.004-0.006c-13.56-23.677-23.895-51.19-29.48-80.391l-0.266-1.673q-2.233-12.064-3.357-24.298c-0.19-2.057 3.022-2.044 3.212 0z" />
<glyph unicode="&#xe901;" horiz-adv-x="1600" d="M301.711 800.303c0-11.234-9.107-20.34-20.34-20.34s-20.34 9.107-20.34 20.34c0 11.234 9.107 20.34 20.34 20.34s20.34-9.107 20.34-20.34z" />
<glyph unicode="&#xe902;" horiz-adv-x="1600" d="M243.008 679.833c1.895 19.921 6.92 38.221 14.595 55.059l-0.437-1.071q3.195 7.138 7.034 13.962c0.079 0.143 0.125 0.314 0.125 0.495 0 0.576-0.467 1.043-1.043 1.043-0.369 0-0.694-0.192-0.879-0.482l-0.003-0.004c-8.797-15.36-15.502-33.209-19.125-52.153l-0.173-1.085q-1.449-7.826-2.178-15.763c-0.123-1.335 1.961-1.326 2.084 0z" />
<glyph unicode="&#xe903;" horiz-adv-x="1600" d="M282.441 757.637c0-7.288-5.908-13.196-13.196-13.196s-13.196 5.908-13.196 13.196c0 7.288 5.908 13.196 13.196 13.196s13.196-5.908 13.196-13.196z" />
<glyph unicode="&#xe904;" glyph-name="mail" d="M896 800h-768c-70.688 0-128-57.344-128-128v-416c0-70.688 57.312-128 128-128h768c70.688 0 128 57.312 128 128v416c0 70.656-57.312 128-128 128zM64 632l223.968-168-223.968-168v336zM960 256c0-35.328-28.736-64-64-64h-768c-35.296 0-64 28.672-64 64l250.624 188 139.776-104.864c17.056-12.736 37.312-19.2 57.6-19.2 20.256 0 40.512 6.432 57.568 19.2l139.808 104.864 250.624-188zM960 296l-224 168 224 168v-336zM550.368 364.736c-11.168-8.384-24.416-12.8-38.368-12.8s-27.232 4.448-38.4 12.8l-409.6 307.264c0 35.296 28.704 64 64 64h768c35.264 0 64-28.704 64-64l-409.632-307.264z" />
<glyph unicode="&#xe91d;" horiz-adv-x="1600" d="M240.378 681.078c-9.578 14.726-17.153 31.823-21.789 50.094l-0.254 1.183q-1.871 7.593-3.041 15.335c-0.086 0.496-0.514 0.868-1.028 0.868-0.576 0-1.043-0.467-1.043-1.043 0-0.036 0.002-0.072 0.005-0.108v0.004c3.123-20.136 9.256-38.255 17.984-54.793l-0.455 0.946q3.671-7.062 7.978-13.768c0.723-1.128 2.362 0.16 1.643 1.282z" />
<glyph unicode="&#xe976;" glyph-name="react" d="M512 539.264c-50.404 0-91.264-40.86-91.264-91.264s40.86-91.264 91.264-91.264v0c50.404 0 91.264 40.86 91.264 91.264s-40.86 91.264-91.264 91.264v0zM256.341 266.453l-20.139 5.12c-150.101 37.931-236.203 102.315-236.203 176.597s86.101 138.667 236.203 176.597l20.139 5.077 5.675-19.968c17.427-59.534 37.207-110.167 60.77-158.621l-2.615 5.96 4.309-9.088-4.309-9.088c-21.008-42.541-40.79-93.177-56.362-145.624l-1.793-7.037zM226.859 578.133c-114.091-32.043-184.107-81.067-184.107-129.963 0-48.853 70.016-97.877 184.107-129.963 16.375 51.835 33.476 94.868 53.189 136.421l-2.757-6.459c-16.998 35.141-34.1 78.175-48.354 122.486l-2.078 7.477zM767.659 266.453l-5.675 20.011c-17.397 59.48-37.192 110.1-60.795 158.523l2.598-5.904-4.309 9.088 4.309 9.088c20.991 42.518 40.785 93.152 56.391 145.59l1.806 7.071 5.675 19.968 20.181-5.077c150.059-37.931 236.16-102.315 236.16-176.64s-86.101-138.667-236.16-176.597zM746.709 448.171c20.48-44.331 37.419-87.893 50.432-129.963 114.133 32.085 184.107 81.109 184.107 129.963 0 48.896-70.016 97.877-184.107 129.963-16.34-51.795-33.441-94.829-53.171-136.372l2.739 6.41zM226.56 578.347l-5.675 19.925c-42.197 148.736-29.397 255.317 35.115 292.523 63.275 36.523 164.864-6.613 271.317-115.883l14.507-14.891-14.507-14.891c-36.676-38.083-70.629-79.417-101.171-123.302l-2.168-3.29-5.76-8.235-10.027-0.853c-59.99-4.821-115.073-14.042-168.464-27.517l6.97 1.49zM307.456 861.227c-11.435 0-21.547-2.475-30.080-7.381-42.411-24.448-49.92-109.44-20.693-224.128 38.731 9.119 85.784 16.673 133.752 21.066l4.19 0.31c28.61 40.451 57.346 75.851 88.205 109.26l-0.653-0.716c-66.56 64.811-129.579 101.589-174.72 101.589zM716.587-7.552c-0.043 0-0.043 0 0 0-60.8 0-138.88 45.781-219.904 128.981l-14.507 14.891 14.507 14.891c36.663 38.090 70.602 79.438 101.126 123.338l2.17 3.297 5.76 8.235 9.984 0.853c60.002 4.793 115.118 14 168.539 27.471l-6.961-1.487 20.139 5.077 5.717-19.968c42.112-148.651 29.355-255.275-35.157-292.437-14.374-8.272-31.607-13.151-49.98-13.151-0.504 0-1.007 0.004-1.509 0.011l0.076-0.001zM541.824 136.704c66.56-64.811 129.579-101.589 174.72-101.589h0.043c11.392 0 21.547 2.475 30.037 7.381 42.411 24.448 49.963 109.483 20.693 224.171-38.768-9.137-85.837-16.691-133.824-21.070l-4.16-0.306c-28.571-40.473-57.296-75.887-88.158-109.297l0.648 0.71zM797.44 578.347l-20.139 5.077c-46.487 12.029-101.603 21.252-158.039 25.797l-3.539 0.229-9.984 0.853-5.76 8.235c-32.67 47.183-66.61 88.519-103.593 126.902l0.297-0.31-14.507 14.891 14.507 14.891c106.411 109.227 207.957 152.363 271.317 115.883 64.512-37.205 77.312-143.787 35.157-292.48zM629.333 651.093c48.725-4.437 95.019-11.648 137.984-21.376 29.269 114.688 21.717 199.68-20.693 224.128-42.155 24.363-121.387-12.971-204.8-94.208 30.188-32.69 58.911-68.089 85.298-105.262l2.212-3.282zM307.456-7.552c-0.439-0.007-0.956-0.011-1.475-0.011-18.373 0-35.607 4.88-50.476 13.414l0.495-0.262c-64.512 37.163-77.312 143.744-35.115 292.437l5.632 19.968 20.139-5.077c49.28-12.416 103.637-21.163 161.493-25.984l10.027-0.853 5.717-8.235c32.719-47.191 66.671-88.538 103.646-126.955l-0.307 0.321 14.507-14.891-14.507-14.891c-80.981-83.2-159.061-128.981-219.776-128.981zM256.683 266.667c-29.269-114.688-21.717-199.723 20.693-224.171 42.112-24.021 121.301 13.013 204.8 94.208-30.181 32.703-58.917 68.115-85.33 105.292l-2.222 3.294c-52.126 4.681-99.18 12.235-145.102 22.757l7.161-1.381zM512 239.872c-35.115 0-71.211 1.536-107.349 4.523l-10.027 0.853-5.76 8.235c-17.419 24.566-36.456 54.116-54.294 84.456l-3.306 6.082c-14.479 24.255-31.065 55.411-46.384 87.29l-3.365 7.771-4.267 9.088 4.267 9.088c18.676 39.64 35.262 70.796 53.052 101.162l-3.303-6.1c17.664 30.549 37.077 61.013 57.6 90.539l5.76 8.235 10.027 0.853c32.164 2.894 69.575 4.544 107.371 4.544s75.208-1.65 112.166-4.882l-4.795 0.338 9.984-0.853 5.717-8.235c37.651-53.308 73.422-114.148 104.065-177.917l3.327-7.683 4.309-9.088-4.309-9.088c-33.853-71.409-69.628-132.255-110.056-189.584l2.664 3.984-5.717-8.235-9.984-0.853c-36.139-2.987-72.277-4.523-107.392-4.523zM418.261 286.123c63.147-4.736 124.331-4.736 187.52 0 32.123 46.25 63.305 99.337 90.466 154.753l3.23 7.295c-30.297 62.657-61.496 115.748-96.387 166.086l2.648-4.038c-28.060 2.262-60.749 3.552-93.739 3.552s-65.677-1.29-98.016-3.821l4.277 0.269c-32.27-46.312-63.469-99.404-90.57-154.865l-3.169-7.183c30.431-62.72 61.625-115.806 96.447-166.192l-2.709 4.144z" />
<glyph unicode="&#xe977;" glyph-name="kotlin" d="M55.467-64l482.133 490.667 486.4-490.667zM0 960h512l-512-533.333zM571.733 960l-571.733-597.333v-426.667l1024 1024z" />
<glyph unicode="&#xe978;" glyph-name="arduino" d="M1016.32 448c-2.614 134.183-112.006 241.958-246.569 241.958-1.516 0-3.028-0.014-4.537-0.041l0.227 0.003c-12.373 0-25.6-0.853-38.4-2.133-107.52-15.787-179.2-93.013-218.88-152.32-40.533 59.307-112.64 136.533-219.307 152.32-12.8 1.28-25.6 2.133-38.4 2.133-1.155 0.019-2.518 0.031-3.884 0.031-134.561 0-243.952-107.771-246.565-241.706l-0.004-0.244c2.618-134.18 112.008-241.951 246.569-241.951 1.366 0 2.729 0.011 4.090 0.033l-0.205-0.003c12.8 0 25.6 0.853 39.253 2.56 107.52 15.36 179.2 92.587 219.307 151.893 40.533-59.307 112.213-136.533 219.307-152.32 13.227-1.28 25.6-2.133 38.827-2.133 0.774-0.009 1.689-0.014 2.604-0.014 134.555 0 243.942 107.761 246.565 241.688l0.004 0.245zM276.48 294.4c-8.533-1.707-18.347-1.707-26.88-1.707-1.036-0.024-2.257-0.038-3.481-0.038-87.2 0-158.193 69.387-160.78 155.96l-0.006 0.238c2.824 86.859 73.915 156.198 161.2 156.198 1.228 0 2.454-0.014 3.675-0.041l-0.182 0.003c8.533 0 17.92-0.853 26.88-1.707 101.12-14.933 162.987-113.92 183.893-154.453-21.333-40.533-83.2-140.8-184.32-154.453zM554.667 448c20.907 39.68 82.773 139.52 183.893 154.453 8.533 1.707 17.92 1.707 26.453 1.707 1.415 0.045 3.078 0.070 4.748 0.070 87.126 0 158.030-69.453 160.367-156.014l0.005-0.216c-2.824-86.859-73.915-156.198-161.2-156.198-1.228 0-2.454 0.014-3.675 0.041l0.182-0.003c-8.533 0-17.92 0.853-26.453 1.707-100.693 14.933-162.987 114.773-184.32 154.453zM179.627 422.827h151.040v49.493h-150.613zM782.507 422.827h50.773v49.493h-51.2v50.773h-48.213v-51.2h-51.2v-49.067h51.2v-50.347h49.067zM1024 658.773c0-12.8-9.387-21.76-22.613-21.76-0.256-0.011-0.556-0.017-0.857-0.017-11.874 0-21.526 9.51-21.756 21.329v0.021c0 11.947 10.24 22.187 22.613 22.187 13.227 0 22.613-9.387 22.613-21.76zM985.173 658.773c0-9.387 6.827-17.067 17.067-17.067 9.387 0 16.213 7.68 16.213 17.067s-6.827 17.067-16.213 17.067c-10.24 0.853-17.067-6.827-17.067-17.067zM997.973 647.68h-4.267v22.187l8.533 0.427c3.84 0 5.973-0.427 7.68-1.28s2.56-2.56 2.56-4.693c0-2.56-1.707-4.267-4.693-4.693 2.133-0.853 2.987-2.56 3.84-5.547l1.28-5.547h-5.12c-0.853 0.853-0.853 2.987-1.707 5.547-0.853 2.133-1.707 2.987-4.693 2.987h-2.133zM998.827 660.48h2.56c2.987 0 4.267 0.427 4.267 2.987 0 2.133-1.28 2.987-4.267 2.987h-2.987v-5.973z" />
<glyph unicode="&#xe979;" glyph-name="android" d="M1024 149.333h-1024c10.996 97.62 44.67 185.638 95.601 261.041l-1.308-2.054c40.353 61.72 92.677 112.273 154.028 149.415l19.626 11.012-86.187 145.493c-1.986 3.219-3.163 7.121-3.163 11.298 0 7.822 4.127 14.68 10.323 18.515l0.093 0.054c3.126 1.898 6.904 3.021 10.945 3.021 7.869 0 14.743-4.26 18.441-10.6l0.055-0.101 88.747-149.333c59.159 24.322 127.831 38.442 199.801 38.442 2.358 0 4.712-0.015 7.062-0.045l-0.356 0.004c1.888 0.025 4.118 0.039 6.351 0.039 70.774 0 138.25-14.125 199.761-39.709l-3.446 1.27 88.32 149.333c3.768 6.373 10.606 10.581 18.425 10.581 4.246 0 8.202-1.24 11.526-3.378l-0.085 0.051c6.114-3.921 10.107-10.683 10.107-18.377 0-4.256-1.222-8.226-3.334-11.58l0.053 0.090-86.187-145.92 21.333-11.947c63.108-39.707 115.018-91.482 153.705-152.471l1.175-1.982c46.839-71.889 79.601-157.201 92.224-248.938l0.363-3.222zM704 340.48c0-23.564 19.103-42.667 42.667-42.667v0c23.564 0 42.667 19.103 42.667 42.667v0c0 23.564-19.103 42.667-42.667 42.667v0c-23.564 0-42.667-19.103-42.667-42.667v0zM234.667 340.48c0-23.564 19.103-42.667 42.667-42.667v0c23.564 0 42.667 19.103 42.667 42.667v0c0 23.564-19.103 42.667-42.667 42.667v0c-23.564 0-42.667-19.103-42.667-42.667v0z" />
<glyph unicode="&#xe97a;" glyph-name="java" d="M377.643 168.107c0 0-39.125-22.784 27.861-30.464 81.152-9.301 122.624-7.979 212.011 9.003 0 0 23.552-14.763 56.363-27.563-200.491-85.888-453.675 5.035-296.235 49.024zM353.109 280.192c0 0-43.861-32.469 23.125-39.424 86.699-8.917 155.136-9.685 273.621 13.141 0 0 16.384-16.597 42.112-25.685-242.304-70.869-512.299-5.547-338.859 51.968zM559.616 470.4c49.408-56.875-12.971-108.075-12.971-108.075s125.397 64.768 67.797 145.835c-53.803 75.605-95.061 113.152 128.299 242.688 0 0.043-350.549-87.509-183.125-280.448zM824.747 85.163c0 0 28.971-23.851-31.872-42.283-115.712-35.072-481.621-45.611-583.211-1.408-36.523 15.915 32 37.973 53.504 42.581 22.485 4.864 35.328 3.968 35.328 3.968-40.661 28.629-262.656-56.192-112.768-80.512 408.747-66.261 745.045 29.867 639.019 77.653zM396.459 396.373c0 0-186.112-44.203-65.877-60.245 50.731-6.784 151.936-5.248 246.187 2.645 77.056 6.485 154.368 20.352 154.368 20.352s-27.179-11.605-46.848-25.045c-188.971-49.707-554.069-26.581-448.939 24.235 88.832 42.923 161.109 38.059 161.109 38.059zM730.283 209.749c192.128 99.84 103.296 195.797 41.301 182.827-15.147-3.157-21.973-5.888-21.973-5.888s5.632 8.832 16.427 12.672c122.667 43.136 217.003-127.189-39.595-194.645 0 0.043 2.987 2.645 3.84 5.035zM614.443 960c0 0 106.411-106.411-100.907-270.080-166.229-131.285-37.888-206.165-0.043-291.669-97.024 87.595-168.235 164.608-120.491 236.331 70.144 105.344 264.405 156.373 221.44 325.419zM415.317-60.757c184.405-11.819 467.584 6.528 474.283 93.781 0 0-12.885-33.067-152.405-59.349-157.355-29.611-351.531-26.155-466.645-7.168 0 0.043 23.595-19.499 144.768-27.264z" />
<glyph unicode="&#xe97b;" d="M512 58.24l170.784 597.76h278.912l-449.696-659.136v61.376zM360.576 656l151.424 212.48 151.776-212.48h-303.2z" />
<glyph unicode="&#xe97c;" d="M816 846.048l-135.776-190.048h2.56l-170.784-597.76-170.784 597.76h-278.944l-10.784 15.776 140.512 196.704 151.776-212.48h320l-135.776 190.048v33.952h288v-33.952z" />
<glyph unicode="&#xe97d;" d="M62.272 656h278.944l170.784-597.76v-61.376l-449.728 659.136zM208 846.048v33.952h288v-33.952l-135.424-190.048h-16.8l-135.776 190.048zM961.728 656l10.784 15.776-140.512 196.704-151.776-212.48h281.504z" />
<glyph unicode="&#xe97e;" d="M832 896h-640l-160-224 480-704 480 704-160 224zM661.568 640l-149.568-523.52-149.568 523.52h299.136zM391.328 672l120.672 168.96 120.672-168.96h-241.344zM499.808 42.688l-407.264 597.312h236.608l170.656-597.312zM694.848 640h236.608l-407.264-597.312 170.656 597.312zM952.672 672h-241.344l120.672 168.96 120.672-168.96zM809.152 864l-137.152-192-137.152 192h274.304zM489.152 864l-137.152-192-137.152 192h274.304zM312.672 672h-241.344l120.672 168.96 120.672-168.96z" />
<glyph unicode="&#xe97f;" d="M944 448c0-238.587-193.413-432-432-432s-432 193.413-432 432c0 238.587 193.413 432 432 432s432-193.413 432-432z" />
<glyph unicode="&#xe980;" d="M512 880c-238.592 0-432-193.408-432-432s193.408-432 432-432 432 193.408 432 432c0 238.592-193.408 432-432 432zM512 64c-211.744 0-384 172.256-384 384s172.256 384 384 384 384-172.256 384-384-172.256-384-384-384z" />
<glyph unicode="&#xe981;" d="M95.584 422.336l-14.528 4.864c-0.352 6.944-1.056 13.76-1.056 20.8 0 81.152 22.784 156.8 61.696 221.664l15.136-5.056 49.344-122.368-110.592-119.904zM339.872 51.872l12.128 12.128-32 128-160 32-10.496-10.496c45.984-70.944 112.064-127.552 190.368-161.632zM867.168 664.608l-49.344-122.368 110.624-119.936 14.496 4.864c0.352 6.944 1.056 13.792 1.056 20.832 0 81.152-22.784 156.8-61.696 221.664l-15.136-5.056zM685.408 505.152l-173.408 115.616-173.408-115.616 57.472-201.152h231.872l57.472 201.152zM874.496 213.504l-10.496 10.496-160-32-32-128 12.128-12.128c78.304 34.080 144.384 90.688 190.368 161.632zM672 832v17.024c-49.536 19.776-103.424 30.976-160 30.976s-110.464-11.2-160-30.976v-17.024l160-64 160 64z" />
<glyph unicode="&#xe982;" d="M512 896c-247.424 0-448-200.576-448-448s200.576-448 448-448 448 200.576 448 448-200.576 448-448 448zM927.936 446.464l-91.488 99.2 40.8 101.248c32.32-59.136 50.752-126.912 50.752-198.912 0-0.512-0.064-1.024-0.064-1.536zM649.376 840.192l-137.376-54.976-137.376 54.976c43.072 15.136 89.184 23.808 137.376 23.808s94.304-8.672 137.376-23.808zM146.752 646.912l40.832-101.248-91.52-99.2c0 0.512-0.064 1.024-0.064 1.536 0 72 18.432 139.776 50.752 198.912zM175.36 204.608l131.584-26.336 26.336-105.344c-63.040 30.176-117.28 75.584-157.92 131.68zM370.144 57.44l-37.056 148.288-182.048 36.384c-27.616 48.192-45.952 102.272-52.32 160l126.176 136.736-57.344 142.080c41.184 60.736 98.24 109.632 164.832 141.696l179.616-71.84 179.648 71.84c66.624-32.096 123.648-80.992 164.832-141.728l-57.312-142.080 126.144-136.736c-6.368-57.728-24.736-111.808-52.32-160l-182.048-36.384-37.056-148.288c-44.384-16.128-92-25.408-141.888-25.408s-97.504 9.28-141.856 25.44zM690.752 72.928l26.336 105.344 131.584 26.336c-40.672-56.096-94.912-101.504-157.92-131.68zM704 512l-192 128-192-128 64-224h256l64 224zM408.128 320l-50.944 178.336 154.816 103.2 154.816-103.2-50.944-178.336h-207.744z" />
<glyph unicode="&#xe983;" d="M1008 496h-992v-96h992v96z" />
<glyph unicode="&#xe984;" d="M176 688h96v-480h-96v64h-96v352h96v64zM848 624v64h-96v-480h96v64h96v352h-96z" />
<glyph unicode="&#xe985;" d="M1024 512h-64v128h-96v64h-128v-192h-448v192h-128v-64h-96v-128h-64v-128h64v-128h96v-64h128v192h448v-192h128v64h96v128h64v128zM32 416v64h32v-64h-32zM96 288v320h64v-320h-64zM256 224h-64v448h64v-448zM288 416v64h448v-64h-448zM832 224h-64v448h64v-448zM928 288h-64v320h64v-320zM992 416h-32v64h32v-64z" />
<glyph unicode="&#xe986;" horiz-adv-x="1600" d="M226.408 758.563c0-7.288-5.908-13.196-13.196-13.196s-13.196 5.908-13.196 13.196c0 7.288 5.908 13.196 13.196 13.196s13.196-5.908 13.196-13.196z" />
<glyph unicode="&#xe987;" horiz-adv-x="1600" d="M199.868 669.403v25.927c0.006 5.367 4.355 9.716 9.722 9.723h60.497c5.367-0.006 9.716-4.355 9.723-9.722v-25.928c-0.006-5.367-4.355-9.716-9.722-9.723h-60.497c-5.367 0.006-9.716 4.355-9.723 9.722v0.001z" />
<glyph unicode="&#xe988;" horiz-adv-x="1600" d="M267.926 834.687h-25.927c-5.367 0.006-9.716 4.355-9.723 9.722v105.869c0.006 5.367 4.355 9.716 9.722 9.723h25.927c5.367-0.006 9.716-4.355 9.723-9.722v-105.869c-0.006-5.367-4.355-9.716-9.722-9.723h-0.001z" />
<glyph unicode="&#xe989;" horiz-adv-x="1600" d="M233.357 939.475h43.211v-8.642h-43.211v8.642z" />
<glyph unicode="&#xe98a;" horiz-adv-x="1600" d="M233.357 872.497h43.211v-8.642h-43.211v8.642z" />
<glyph unicode="&#xe98b;" horiz-adv-x="1600" d="M332.743 834.687h-25.927c-5.367 0.006-9.716 4.355-9.723 9.722v105.869c0.006 5.367 4.355 9.716 9.722 9.723h25.927c5.367-0.006 9.716-4.355 9.723-9.722v-105.869c-0.006-5.367-4.355-9.716-9.722-9.723h-0.001z" />
<glyph unicode="&#xe98c;" horiz-adv-x="1600" d="M298.174 939.475h43.211v-8.642h-43.211v8.642z" />
<glyph unicode="&#xe98d;" horiz-adv-x="1600" d="M298.174 872.497h43.211v-8.642h-43.211v8.642z" />
<glyph unicode="&#xe98e;" horiz-adv-x="1600" d="M397.56 834.687h-25.927c-5.367 0.006-9.716 4.355-9.723 9.722v105.869c0.006 5.367 4.355 9.716 9.722 9.723h25.927c5.367-0.006 9.716-4.355 9.723-9.722v-105.869c-0.006-5.367-4.355-9.716-9.722-9.723h-0.001z" />
<glyph unicode="&#xe98f;" horiz-adv-x="1600" d="M362.991 939.475h43.211v-8.642h-43.211v8.642z" />
<glyph unicode="&#xe990;" horiz-adv-x="1600" d="M362.991 872.497h43.211v-8.642h-43.211v8.642z" />
<glyph unicode="&#xe991;" horiz-adv-x="1600" d="M432.129 659.68h-25.927c-5.367 0.006-9.716 4.355-9.723 9.722v105.869c0.006 5.367 4.355 9.716 9.722 9.723h25.927c5.367-0.006 9.716-4.355 9.723-9.722v-105.869c-0.006-5.367-4.355-9.716-9.722-9.723h-0.001z" />
<glyph unicode="&#xe992;" horiz-adv-x="1600" d="M397.56 764.468h43.211v-8.642h-43.211v8.642z" />
<glyph unicode="&#xe993;" horiz-adv-x="1600" d="M397.56 697.49h43.211v-8.642h-43.211v8.642z" />
<glyph unicode="&#xe994;" horiz-adv-x="1600" d="M496.947 659.68h-25.927c-5.367 0.006-9.716 4.355-9.723 9.722v105.869c0.006 5.367 4.355 9.716 9.722 9.723h25.927c5.367-0.006 9.716-4.355 9.723-9.722v-105.869c-0.006-5.367-4.355-9.716-9.722-9.723h-0.001z" />
<glyph unicode="&#xe995;" horiz-adv-x="1600" d="M462.377 764.468h43.211v-8.642h-43.211v8.642z" />
<glyph unicode="&#xe996;" horiz-adv-x="1600" d="M462.377 697.49h43.211v-8.642h-43.211v8.642z" />
<glyph unicode="&#xe997;" horiz-adv-x="1600" d="M561.764 659.68h-25.927c-5.367 0.006-9.716 4.355-9.723 9.722v105.869c0.006 5.367 4.355 9.716 9.722 9.723h25.927c5.367-0.006 9.716-4.355 9.723-9.722v-105.869c-0.006-5.367-4.355-9.716-9.722-9.723h-0.001z" />
<glyph unicode="&#xe998;" horiz-adv-x="1600" d="M527.195 764.468h43.211v-8.642h-43.211v8.642z" />
<glyph unicode="&#xe999;" horiz-adv-x="1600" d="M527.195 697.49h43.211v-8.642h-43.211v8.642z" />
<glyph unicode="&#xe99a;" horiz-adv-x="1600" d="M261.444 484.674h-25.927c-5.367 0.006-9.716 4.355-9.723 9.722v105.869c0.006 5.367 4.355 9.716 9.722 9.723h25.927c5.367-0.006 9.716-4.355 9.723-9.722v-105.869c-0.006-5.367-4.355-9.716-9.722-9.723h-0.001z" />
<glyph unicode="&#xe99b;" horiz-adv-x="1600" d="M226.875 589.462h43.211v-8.642h-43.211v8.642z" />
<glyph unicode="&#xe99c;" horiz-adv-x="1600" d="M226.875 522.484h43.211v-8.642h-43.211v8.642z" />
<glyph unicode="&#xe99d;" horiz-adv-x="1600" d="M326.261 484.674h-25.927c-5.367 0.006-9.716 4.355-9.723 9.722v105.869c0.006 5.367 4.355 9.716 9.722 9.723h25.927c5.367-0.006 9.716-4.355 9.723-9.722v-105.869c-0.006-5.367-4.355-9.716-9.722-9.723h-0.001z" />
<glyph unicode="&#xe99e;" horiz-adv-x="1600" d="M291.692 589.462h43.211v-8.642h-43.211v8.642z" />
<glyph unicode="&#xe99f;" horiz-adv-x="1600" d="M291.692 522.484h43.211v-8.642h-43.211v8.642z" />
<glyph unicode="&#xe9a0;" horiz-adv-x="1600" d="M391.079 484.674h-25.927c-5.367 0.006-9.716 4.355-9.723 9.722v105.869c0.006 5.367 4.355 9.716 9.722 9.723h25.927c5.367-0.006 9.716-4.355 9.723-9.722v-105.869c-0.006-5.367-4.355-9.716-9.722-9.723h-0.001z" />
<glyph unicode="&#xe9a1;" horiz-adv-x="1600" d="M356.509 589.462h43.211v-8.642h-43.211v8.642z" />
<glyph unicode="&#xe9a2;" horiz-adv-x="1600" d="M356.509 522.484h43.211v-8.642h-43.211v8.642z" />
<glyph unicode="&#xe9a3;" horiz-adv-x="1600" d="M462.377 834.687h-25.927c-5.367 0.006-9.716 4.355-9.723 9.722v105.869c0.006 5.367 4.355 9.716 9.722 9.723h25.927c5.367-0.006 9.716-4.355 9.723-9.722v-105.869c-0.006-5.367-4.355-9.716-9.722-9.723h-0.001z" />
<glyph unicode="&#xe9a4;" horiz-adv-x="1600" d="M427.808 939.475h43.211v-8.642h-43.211v8.642z" />
<glyph unicode="&#xe9a5;" horiz-adv-x="1600" d="M427.808 872.497h43.211v-8.642h-43.211v8.642z" />
<glyph unicode="&#xe9a6;" horiz-adv-x="1600" d="M527.195 834.687h-25.927c-5.367 0.006-9.716 4.355-9.723 9.722v105.869c0.006 5.367 4.355 9.716 9.722 9.723h25.927c5.367-0.006 9.716-4.355 9.723-9.722v-105.869c-0.006-5.367-4.355-9.716-9.722-9.723h-0.001z" />
<glyph unicode="&#xe9a7;" horiz-adv-x="1600" d="M492.625 939.475h43.211v-8.642h-43.211v8.642z" />
<glyph unicode="&#xe9a8;" horiz-adv-x="1600" d="M492.625 872.497h43.211v-8.642h-43.211v8.642z" />
<glyph unicode="&#xe9a9;" horiz-adv-x="1600" d="M592.012 834.687h-25.927c-5.367 0.006-9.716 4.355-9.723 9.722v105.869c0.006 5.367 4.355 9.716 9.722 9.723h25.927c5.367-0.006 9.716-4.355 9.723-9.722v-105.869c-0.006-5.367-4.355-9.716-9.722-9.723h-0.001z" />
<glyph unicode="&#xe9aa;" horiz-adv-x="1600" d="M557.443 939.475h43.211v-8.642h-43.211v8.642z" />
<glyph unicode="&#xe9ab;" horiz-adv-x="1600" d="M557.443 872.497h43.211v-8.642h-43.211v8.642z" />
<glyph unicode="&#xe9ac;" horiz-adv-x="1600" d="M656.829 834.687h-25.927c-5.367 0.006-9.716 4.355-9.723 9.722v105.869c0.006 5.367 4.355 9.716 9.722 9.723h25.927c5.367-0.006 9.716-4.355 9.723-9.722v-105.869c-0.006-5.367-4.355-9.716-9.722-9.723h-0.001z" />
<glyph unicode="&#xe9ad;" horiz-adv-x="1600" d="M622.26 939.475h43.211v-8.642h-43.211v8.642z" />
<glyph unicode="&#xe9ae;" horiz-adv-x="1600" d="M622.26 872.497h43.211v-8.642h-43.211v8.642z" />
<glyph unicode="&#xe9af;" horiz-adv-x="1600" d="M753.927 831.446h-615.763c-1.193 0-2.161 0.967-2.161 2.161s0.967 2.161 2.161 2.161v0h615.763c1.193 0 2.161-0.967 2.161-2.161s-0.967-2.161-2.161-2.161v0z" />
<glyph unicode="&#xe9b0;" horiz-adv-x="1600" d="M753.927 656.44h-615.763c-1.193 0-2.161 0.967-2.161 2.161s0.967 2.161 2.161 2.161v0h615.763c1.193 0 2.161-0.967 2.161-2.161s-0.967-2.161-2.161-2.161v0z" />
<glyph unicode="&#xe9b1;" horiz-adv-x="1600" d="M753.927 481.433h-615.763c-1.193 0-2.161 0.967-2.161 2.161s0.967 2.161 2.161 2.161v0h615.763c1.193 0 2.161-0.967 2.161-2.161s-0.967-2.161-2.161-2.161v0z" />
<glyph unicode="&#xe9b2;" horiz-adv-x="1600" d="M717.461 142.262c0 16.706-62.876 30.248-140.437 30.248s-140.437-13.542-140.437-30.248c0-10.707 25.85-20.107 64.817-25.482v-165.728c0-7.756 6.288-14.044 14.044-14.044s14.044 6.288 14.044 14.044v0 162.743c14.848-1.15 30.846-1.78 47.533-1.78s32.685 0.63 47.533 1.78v-162.743c0-7.756 6.288-14.044 14.044-14.044s14.044 6.288 14.044 14.044v0 165.728c38.967 5.376 64.817 14.776 64.817 25.482z" />
<glyph unicode="&#xe9b3;" horiz-adv-x="1600" d="M690.439-35.821h26.489l12.6 102.169h-39.093l0.004-102.169z" />
<glyph unicode="&#xe9b4;" horiz-adv-x="1600" d="M768.012-60.413l-83.248-0.004-0.001 32.164 51.084 0.002c17.764 0.001 32.165-14.399 32.166-32.163v0 0cv0z" />
<glyph unicode="&#xe9b5;" horiz-adv-x="1600" d="M731.788-21.038l25.272 7.931-18.564 101.255-37.3-11.704 30.592-97.483z" />
<glyph unicode="&#xe9b6;" horiz-adv-x="1600" d="M813.165-21.278l-79.429-24.926-9.631 30.689 48.741 15.296c16.949 5.319 35-4.109 40.319-21.058v0cv0z" />
<glyph unicode="&#xe9b7;" horiz-adv-x="1600" d="M714.066 25.987l-48.456 127.195c-10.871-2.553-102.036-22.726-132.57 9.784-10.464 11.143-12.505 27.286-6.066 47.982l17.819 22.393 0.554-0.030c6.738-0.354 165.144-9.233 176.003-57.015 9.156-40.283 25.876-115.386 30.782-137.445 0.142-0.624 0.223-1.34 0.223-2.075 0-4.147-2.588-7.69-6.236-9.102l-0.067-0.023-19.487-7.307c-1.009-0.391-2.176-0.618-3.396-0.618v0c-4.13 0-7.659 2.568-9.080 6.194l-0.023 0.066z" />
<glyph unicode="&#xe9b8;" horiz-adv-x="1600" d="M685.979 10.863l-48.456 127.195c-10.871-2.553-102.036-22.724-132.57 9.784-10.464 11.143-12.505 27.286-6.066 47.982l17.819 22.393 0.554-0.030c6.738-0.354 165.144-9.233 176.003-57.015 9.156-40.283 25.876-115.386 30.782-137.445 0.142-0.624 0.223-1.34 0.223-2.075 0-4.147-2.588-7.69-6.236-9.102l-0.067-0.023-19.487-7.307c-1.009-0.391-2.176-0.618-3.396-0.618v0c-4.13 0-7.659 2.568-9.080 6.194l-0.023 0.066z" />
<glyph unicode="&#xe9b9;" horiz-adv-x="1600" d="M751.462 315.769c-0.663-0.877-1.297-1.867-1.852-2.906l-0.060-0.122-106.56-11.227-15.339 21.031-34.765-19.001 30.128-51.035 130.687 33.321c4.082-3.983 9.669-6.44 15.83-6.44 12.524 0 22.677 10.153 22.677 22.677s-10.153 22.677-22.677 22.677c-7.351 0-13.886-3.498-18.029-8.92l-0.040-0.055z" />
<glyph unicode="&#xe9ba;" horiz-adv-x="1600" d="M498.202 189.109c-2.462 1.79-4.045 4.66-4.045 7.9 0 0.528 0.042 1.046 0.123 1.551l-0.007-0.056c6.012 39.631-0.905 96.403-7.767 137.051-0.484 2.704-0.76 5.817-0.76 8.994 0 29.587 23.985 53.572 53.572 53.572 2.373 0 4.71-0.154 7.002-0.453l-0.27 0.029c8.298-1.107 15.552-2.585 22.626-4.501l-1.209 0.279c23.259-6.002 40.164-26.793 40.164-51.533 0-0.468-0.006-0.935-0.018-1.4l0.001 0.069c-1.026-39.224 6.939-88.164 10.41-107.383 0.098-0.518 0.154-1.115 0.154-1.724 0-2.21-0.734-4.249-1.973-5.885l0.018 0.024c-1.567-2.090-3.939-3.504-6.648-3.778l-0.040-0.003c-38.476-3.927-79.968-22.69-101.276-33.525-1.286-0.677-2.81-1.077-4.427-1.082h-0.002c-2.119 0.007-4.075 0.702-5.656 1.873l0.026-0.018z" />
<glyph unicode="&#xe9bb;" horiz-adv-x="1600" d="M602.062 291.328c-2.414 0.966-4.307 2.805-5.32 5.118l-0.024 0.062-21.458 49.569c-1.297 2.913-2.052 6.313-2.052 9.888 0 13.722 11.124 24.846 24.846 24.846 10.161 0 18.897-6.099 22.747-14.837l0.063-0.159 21.458-49.569c0.503-1.136 0.796-2.462 0.796-3.855 0-3.974-2.381-7.391-5.794-8.904l-0.062-0.025-27.759-12.016c-1.137-0.509-2.465-0.806-3.862-0.806-1.289 0-2.519 0.253-3.643 0.711l0.065-0.023z" />
<glyph unicode="&#xe9bc;" horiz-adv-x="1600" d="M649.915 320.090c-0.663-0.877-1.297-1.867-1.852-2.906l-0.060-0.122-106.56-11.227-15.339 21.031-34.765-19.001 30.128-51.035 130.687 33.321c4.082-3.983 9.669-6.44 15.83-6.44 12.524 0 22.677 10.153 22.677 22.677s-10.153 22.677-22.677 22.677c-7.351 0-13.886-3.498-18.029-8.92l-0.040-0.055z" />
<glyph unicode="&#xe9bd;" horiz-adv-x="1600" d="M500.515 289.168c-2.414 0.966-4.307 2.805-5.32 5.118l-0.024 0.062-21.458 49.569c-1.297 2.913-2.052 6.313-2.052 9.888 0 13.722 11.124 24.846 24.846 24.846 10.161 0 18.897-6.099 22.747-14.837l0.063-0.159 21.458-49.569c0.503-1.136 0.796-2.462 0.796-3.855 0-3.974-2.381-7.391-5.794-8.904l-0.062-0.025-27.759-12.016c-1.137-0.509-2.465-0.806-3.862-0.806-1.289 0-2.519 0.253-3.643 0.711l0.065-0.023z" />
<glyph unicode="&#xe9be;" horiz-adv-x="1600" d="M595.167 467.625c0-29.307-23.758-53.066-53.066-53.066s-53.066 23.758-53.066 53.066c0 29.307 23.758 53.066 53.066 53.066s53.066-23.758 53.066-53.066z" />
<glyph unicode="&#xe9bf;" horiz-adv-x="1600" d="M504.16 431.205c-0.157 0.445-0.248 0.958-0.248 1.492 0 2.423 1.868 4.409 4.243 4.598l0.016 0.001c3.012-0.169 5.668-1.565 7.499-3.691l0.012-0.014c1.91-2.194 4.094-4.080 6.515-5.626l0.12-0.072c2.567-1.294 6.049-1.11 7.512 1.357 1.374 2.317 0.433 5.419-0.399 8.11-2.011 6.266-3.281 13.495-3.518 20.984l-0.003 0.125c-0.24 7.995 0.888 16.338 5.314 22.574 5.712 8.048 15.926 11.103 25.593 10.881s19.176-3.205 28.751-5.092c3.305-0.651 7.191-0.984 9.402 1.578 2.351 2.724 1.487 7.133 0.487 10.811-2.595 9.544-5.347 19.412-11.376 27.12-6.383 7.799-15.485 13.165-25.84 14.645l-0.218 0.026c-2.308 0.302-4.977 0.474-7.686 0.474-7.679 0-15.036-1.384-21.832-3.917l0.432 0.141c-15.562-5.003-28.583-14.279-38.075-26.442l-0.13-0.173c-7.903-10.432-12.659-23.627-12.659-37.934 0-3.081 0.221-6.111 0.647-9.074l-0.040 0.339c2.389-14.866 10.171-27.582 21.238-36.323l0.121-0.093z" />
<glyph unicode="&#xe9c0;" horiz-adv-x="1600" d="M301.542 303.453c2.921 30.707 10.666 58.916 22.497 84.87l-0.674-1.65q4.925 11.003 10.842 21.521c0.121 0.221 0.193 0.483 0.193 0.763 0 0.888-0.719 1.607-1.607 1.607-0.569 0-1.069-0.296-1.355-0.742l-0.004-0.006c-13.56-23.677-23.895-51.19-29.48-80.391l-0.266-1.673q-2.233-12.064-3.357-24.298c-0.19-2.057 3.022-2.044 3.212 0z" />
<glyph unicode="&#xe9c1;" horiz-adv-x="1600" d="M362.327 423.383c0-11.234-9.107-20.34-20.34-20.34s-20.34 9.107-20.34 20.34c0 11.234 9.107 20.34 20.34 20.34s20.34-9.107 20.34-20.34z" />
<glyph unicode="&#xe9c2;" horiz-adv-x="1600" d="M303.623 302.913c1.895 19.921 6.92 38.221 14.595 55.059l-0.437-1.071q3.195 7.138 7.034 13.962c0.079 0.143 0.125 0.314 0.125 0.495 0 0.576-0.467 1.043-1.043 1.043-0.369 0-0.694-0.192-0.879-0.482l-0.003-0.004c-8.797-15.36-15.502-33.21-19.125-52.153l-0.173-1.085q-1.449-7.826-2.178-15.763c-0.123-1.335 1.961-1.326 2.084 0z" />
<glyph unicode="&#xe9c3;" horiz-adv-x="1600" d="M343.057 380.717c0-7.288-5.908-13.196-13.196-13.196s-13.196 5.908-13.196 13.196c0 7.288 5.908 13.196 13.196 13.196s13.196-5.908 13.196-13.196z" />
<glyph unicode="&#xe9c4;" horiz-adv-x="1600" d="M300.993 304.159c-9.578 14.726-17.153 31.823-21.789 50.094l-0.254 1.183q-1.871 7.593-3.041 15.335c-0.086 0.496-0.514 0.868-1.028 0.868-0.576 0-1.043-0.467-1.043-1.043 0-0.036 0.002-0.072 0.005-0.108v0.004c3.123-20.136 9.256-38.255 17.984-54.793l-0.455 0.946q3.671-7.062 7.978-13.768c0.723-1.128 2.362 0.16 1.643 1.282z" />
<glyph unicode="&#xe9c5;" horiz-adv-x="1600" d="M287.023 381.643c0-7.288-5.908-13.196-13.196-13.196s-13.196 5.908-13.196 13.196c0 7.288 5.908 13.196 13.196 13.196s13.196-5.908 13.196-13.196z" />
<glyph unicode="&#xe9c6;" horiz-adv-x="1600" d="M260.483 292.484v25.927c0.006 5.367 4.355 9.716 9.722 9.723h60.497c5.367-0.006 9.716-4.355 9.723-9.722v-25.928c-0.006-5.367-4.355-9.716-9.722-9.723h-60.497c-5.367 0.006-9.716 4.355-9.723 9.722v0.001z" />
<glyph unicode="&#xe9c7;" horiz-adv-x="1600" d="M632.119 299.984h170.685c4.176 0 7.562-3.386 7.562-7.562s-3.386-7.562-7.562-7.562h-170.685c-4.176 0-7.562 3.386-7.562 7.562s3.386 7.562 7.562 7.562z" />
<glyph unicode="&#xe9c8;" horiz-adv-x="1600" d="M917.314 284.86h-192.291c-7.753 0.009-14.035 6.291-14.044 14.043v105.869c0.009 7.752 6.291 14.035 14.043 14.044h192.292c7.752-0.009 14.035-6.291 14.044-14.043v-105.869c-0.009-7.753-6.291-14.035-14.043-14.044h-0.001z" />
<glyph unicode="&#xe9c9;" horiz-adv-x="1600" d="M834.132 351.837c0-7.16-5.804-12.963-12.963-12.963s-12.963 5.804-12.963 12.963c0 7.16 5.804 12.963 12.963 12.963s12.963-5.804 12.963-12.963z" />
<glyph unicode="&#xe9ca;" horiz-adv-x="1600" d="M1406.684 142.262c0 16.706-62.876 30.248-140.437 30.248s-140.437-13.542-140.437-30.248c0-10.707 25.85-20.107 64.817-25.482v-165.728c0-7.756 6.288-14.044 14.044-14.044s14.044 6.288 14.044 14.044v0 162.743c14.848-1.15 30.846-1.78 47.533-1.78s32.685 0.63 47.533 1.78v-162.743c0-7.756 6.288-14.044 14.044-14.044s14.044 6.288 14.044 14.044v0 165.728c38.967 5.376 64.817 14.776 64.817 25.482z" />
<glyph unicode="&#xe9cb;" horiz-adv-x="1600" d="M1342.271 479.619c0-33.411-27.085-60.496-60.496-60.496s-60.496 27.085-60.496 60.496c0 33.411 27.085 60.496 60.496 60.496s60.496-27.085 60.496-60.496z" />
<glyph unicode="&#xe9cc;" horiz-adv-x="1600" d="M1131.226-37.981h-26.489l-12.6 102.169h39.093l-0.004-102.169z" />
<glyph unicode="&#xe9cd;" horiz-adv-x="1600" d="M1085.817-30.412h51.084v-32.164h-83.249c0 17.764 14.4 32.164 32.164 32.164 0 0 0 0 0 0v0z" />
<glyph unicode="&#xe9ce;" horiz-adv-x="1600" d="M1089.877-23.199l-25.272 7.931 18.564 101.255 37.3-11.704-30.592-97.483z" />
<glyph unicode="&#xe9cf;" horiz-adv-x="1600" d="M1048.819-2.381l48.741-15.296-9.631-30.689-79.429 24.926c5.319 16.949 23.37 26.377 40.319 21.058v0z" />
<glyph unicode="&#xe9d0;" horiz-adv-x="1600" d="M1098.495 17.567c-1.22 0-2.388 0.227-3.462 0.641l0.066-0.022-19.487 7.307c-3.715 1.435-6.303 4.978-6.303 9.125 0 0.735 0.081 1.451 0.235 2.14l-0.012-0.065c4.906 22.059 21.627 97.162 30.782 137.445 10.859 47.782 169.265 56.66 176.003 57.015l0.554 0.030 17.819-22.393c6.439-20.696 4.398-36.839-6.066-47.982-30.534-32.51-121.699-12.337-132.57-9.784l-48.456-127.195c-1.444-3.692-4.974-6.26-9.103-6.26v0z" />
<glyph unicode="&#xe9d1;" horiz-adv-x="1600" d="M1126.582 2.443c-1.22 0-2.388 0.227-3.462 0.641l0.066-0.022-19.487 7.307c-3.715 1.435-6.303 4.978-6.303 9.125 0 0.735 0.081 1.451 0.235 2.14l-0.012-0.065c4.906 22.059 21.627 97.162 30.782 137.445 10.859 47.782 169.265 56.66 176.003 57.015l0.554 0.030 17.819-22.393c6.439-20.696 4.398-36.839-6.066-47.982-30.534-32.508-121.699-12.337-132.57-9.784l-48.456-127.195c-1.444-3.692-4.974-6.26-9.103-6.26v0z" />
<glyph unicode="&#xe9d2;" horiz-adv-x="1600" d="M1070.203 313.608c0.663-0.877 1.297-1.867 1.852-2.906l0.060-0.122 106.56-11.227 15.339 21.031 34.765-19.001-30.128-51.035-130.687 33.321c-4.082-3.983-9.669-6.44-15.83-6.44-12.524 0-22.677 10.153-22.677 22.677s10.153 22.677 22.677 22.677c7.351 0 13.886-3.498 18.029-8.92l0.040-0.055z" />
<glyph unicode="&#xe9d3;" horiz-adv-x="1600" d="M1317.832 185.093c-1.618 0.005-3.142 0.405-4.482 1.108l0.053-0.026c-21.308 10.835-62.8 29.598-101.276 33.525-2.749 0.277-5.121 1.691-6.67 3.756l-0.018 0.025c-1.22 1.612-1.955 3.651-1.955 5.861 0 0.61 0.056 1.206 0.163 1.785l-0.009-0.060c3.472 19.219 11.436 68.159 10.41 107.383-0.011 0.396-0.017 0.863-0.017 1.331 0 24.74 16.906 45.531 39.795 51.452l0.369 0.081c5.866 1.637 13.12 3.115 20.524 4.122l0.894 0.1c2.022 0.27 4.359 0.425 6.732 0.425 29.587 0 53.572-23.985 53.572-53.572 0-3.177-0.277-6.29-0.807-9.315l0.047 0.321c-6.862-40.648-13.778-97.42-7.767-137.051 0.074-0.449 0.116-0.968 0.116-1.495 0-3.24-1.582-6.111-4.017-7.881l-0.028-0.019c-1.556-1.153-3.511-1.847-5.629-1.855h-0.002z" />
<glyph unicode="&#xe9d4;" horiz-adv-x="1600" d="M1216.022 288.48c-1.396 0.002-2.723 0.298-3.922 0.83l0.062-0.025-27.759 12.016c-3.475 1.537-5.856 4.955-5.856 8.929 0 1.394 0.293 2.719 0.82 3.918l-0.024-0.062 21.458 49.569c3.913 8.896 12.649 14.996 22.81 14.996 13.722 0 24.846-11.124 24.846-24.846 0-3.576-0.755-6.975-2.115-10.047l0.063 0.159-21.458-49.569c-1.536-3.477-4.951-5.861-8.924-5.868h-0.001z" />
<glyph unicode="&#xe9d5;" horiz-adv-x="1600" d="M1332.629 465.465c0-29.307-23.758-53.066-53.066-53.066s-53.066 23.758-53.066 53.066c0 29.307 23.758 53.066 53.066 53.066s53.066-23.758 53.066-53.066z" />
<glyph unicode="&#xe9d6;" horiz-adv-x="1600" d="M1225.543 491.536c23.679-14.682 51.854-24.464 82.058-27.229l0.748-0.055-8.729 10.458c5.857-2.235 12.628-3.654 19.692-3.931l0.122-0.004c6.763 0.105 13.849 2.709 17.687 8.279 1.894 3.017 3.017 6.685 3.017 10.615 0 2.904-0.613 5.664-1.717 8.159l0.051-0.129c-2.761 6.086-6.853 11.145-11.929 14.968l-0.098 0.070c-12.084 9.626-27.573 15.445-44.421 15.445-7.944 0-15.586-1.294-22.726-3.682l0.505 0.147c-7.958-2.426-14.7-6.861-19.863-12.721l-0.041-0.047c-5.031-6.206-14.716-11.735-12.14-19.298z" />
<glyph unicode="&#xe9d7;" horiz-adv-x="1600" d="M1288.486 534.361c-16.317 16.541-36.117 29.601-58.215 37.996l-1.12 0.374c-14.343 5.314-29.955 8.597-44.951 5.579s-29.177-13.391-33.36-28.104c-3.421-12.031 0.111-24.984 5.42-36.31s12.396-21.827 16.69-33.575c2.949-7.822 4.655-16.863 4.655-26.303 0-42.322-34.309-76.631-76.631-76.631-1.806 0-3.598 0.062-5.373 0.185l0.239-0.013c14.734-1.976 28.315-8.899 42.716-12.585s31.399-3.436 42.101 6.882c11.323 10.916 11.55 28.665 11.003 44.384l-2.441 70.1c-0.415 11.916-0.769 24.215 3.528 35.337s14.511 20.862 26.434 20.761c9.037-0.077 17.035-5.551 24.282-10.95s14.918-11.159 23.919-11.962 19.279 5.858 18.605 14.87z" />
<glyph unicode="&#xe9d8;" horiz-adv-x="1600" d="M1041.821 352.691l122.187-2.884 17.702-130.62-112.84-2.532-27.048 136.036z" />
<glyph unicode="&#xe9d9;" horiz-adv-x="1600" d="M1171.749 317.929c0.663-0.877 1.297-1.867 1.852-2.906l0.060-0.122 106.56-11.227 15.339 21.031 34.765-19.001-30.128-51.035-130.687 33.321c-4.082-3.983-9.669-6.44-15.83-6.44-12.524 0-22.677 10.153-22.677 22.677s10.153 22.677 22.677 22.677c7.351 0 13.886-3.498 18.029-8.92l0.040-0.055z" />
<glyph unicode="&#xe9da;" horiz-adv-x="1600" d="M1317.569 286.32c-1.396 0.002-2.723 0.298-3.922 0.83l0.062-0.025-27.759 12.016c-3.475 1.537-5.856 4.955-5.856 8.929 0 1.394 0.293 2.719 0.82 3.918l-0.024-0.062 21.458 49.569c3.913 8.896 12.649 14.996 22.81 14.996 13.722 0 24.846-11.124 24.846-24.846 0-3.576-0.755-6.975-2.115-10.047l0.063 0.159-21.458-49.569c-1.536-3.477-4.951-5.861-8.924-5.868h-0.001z" />
<glyph unicode="&#xe9db;" horiz-adv-x="1600" d="M1066.393 287.020h-859.908c-7.756 0-14.044-6.288-14.044-14.044s6.288-14.044 14.044-14.044v0h24.847v-305.721c0-7.756 6.288-14.044 14.044-14.044s14.044 6.288 14.044 14.044v0 278.735l157.443-285.364c2.477-4.214 6.987-6.997 12.148-6.997 7.756 0 14.044 6.288 14.044 14.044 0 2.575-0.693 4.989-1.903 7.064l0.036-0.067-164.583 298.306 751.979-0.182-164.482-298.124c-1.183-2.014-1.882-4.436-1.882-7.022 0-7.756 6.287-14.043 14.043-14.043 5.17 0 9.688 2.794 12.126 6.955l0.036 0.066 140.159 254.036v-247.408c0-7.756 6.288-14.044 14.044-14.044s14.044 6.288 14.044 14.044v0 298.316l4.086 7.405h5.637c7.756 0 14.044 6.288 14.044 14.044s-6.288 14.044-14.044 14.044v0z" />
<glyph unicode="&#xe9dc;" horiz-adv-x="1600" d="M1597.71-64h-1595.137c-1.418 0.004-2.565 1.154-2.565 2.573s1.148 2.568 2.565 2.573v0h1595.137c1.421 0 2.573-1.152 2.573-2.573s-1.152-2.573-2.573-2.573v0z" />
<glyph unicode="&#xe9dd;" glyph-name="bubbles" horiz-adv-x="1152" d="M1088 58.834c0-45.5 26.028-84.908 64-104.184v-15.938c-10.626-1.454-21.472-2.224-32.5-2.224-68.008 0-129.348 28.528-172.722 74.264-26.222-6.982-54.002-10.752-82.778-10.752-159.058 0-288 114.616-288 256s128.942 256 288 256c159.058 0 288-114.616 288-256 0-55.348-19.764-106.592-53.356-148.466-6.824-14.824-10.644-31.312-10.644-48.7zM512 960c278.458 0 504.992-180.614 511.836-405.52-49.182 21.92-103.586 33.52-159.836 33.52-95.56 0-185.816-33.446-254.138-94.178-70.846-62.972-109.862-147.434-109.862-237.822 0-44.672 9.544-87.888 27.736-127.788-5.228-0.126-10.468-0.212-15.736-0.212-27.156 0-53.81 1.734-79.824 5.044-109.978-109.978-241.25-129.7-368.176-132.596v26.916c68.536 33.578 128 94.74 128 164.636 0 9.754-0.758 19.33-2.164 28.696-115.796 76.264-189.836 192.754-189.836 323.304 0 229.75 229.23 416 512 416z" />
<glyph unicode="&#xea87;" glyph-name="html" horiz-adv-x="1280" d="M832 224l96-96 320 320-320 320-96-96 224-224zM448 672l-96 96-320-320 320-320 96 96-224 224zM701.298 809.481l69.468-18.944-191.987-704.026-69.468 18.944 191.987 704.026z" />
<glyph unicode="&#xea92;" glyph-name="instagram" d="M512 867.8c136.8 0 153-0.6 206.8-3 50-2.2 77-10.6 95-17.6 23.8-9.2 41-20.4 58.8-38.2 18-18 29-35 38.4-58.8 7-18 15.4-45.2 17.6-95 2.4-54 3-70.2 3-206.8s-0.6-153-3-206.8c-2.2-50-10.6-77-17.6-95-9.2-23.8-20.4-41-38.2-58.8-18-18-35-29-58.8-38.4-18-7-45.2-15.4-95-17.6-54-2.4-70.2-3-206.8-3s-153 0.6-206.8 3c-50 2.2-77 10.6-95 17.6-23.8 9.2-41 20.4-58.8 38.2-18 18-29 35-38.4 58.8-7 18-15.4 45.2-17.6 95-2.4 54-3 70.2-3 206.8s0.6 153 3 206.8c2.2 50 10.6 77 17.6 95 9.2 23.8 20.4 41 38.2 58.8 18 18 35 29 58.8 38.4 18 7 45.2 15.4 95 17.6 53.8 2.4 70 3 206.8 3zM512 960c-139 0-156.4-0.6-211-3-54.4-2.4-91.8-11.2-124.2-23.8-33.8-13.2-62.4-30.6-90.8-59.2-28.6-28.4-46-57-59.2-90.6-12.6-32.6-21.4-69.8-23.8-124.2-2.4-54.8-3-72.2-3-211.2s0.6-156.4 3-211c2.4-54.4 11.2-91.8 23.8-124.2 13.2-33.8 30.6-62.4 59.2-90.8 28.4-28.4 57-46 90.6-59 32.6-12.6 69.8-21.4 124.2-23.8 54.6-2.4 72-3 211-3s156.4 0.6 211 3c54.4 2.4 91.8 11.2 124.2 23.8 33.6 13 62.2 30.6 90.6 59s46 57 59 90.6c12.6 32.6 21.4 69.8 23.8 124.2 2.4 54.6 3 72 3 211s-0.6 156.4-3 211c-2.4 54.4-11.2 91.8-23.8 124.2-12.6 34-30 62.6-58.6 91-28.4 28.4-57 46-90.6 59-32.6 12.6-69.8 21.4-124.2 23.8-54.8 2.6-72.2 3.2-211.2 3.2v0zM512 711c-145.2 0-263-117.8-263-263s117.8-263 263-263 263 117.8 263 263c0 145.2-117.8 263-263 263zM512 277.4c-94.2 0-170.6 76.4-170.6 170.6s76.4 170.6 170.6 170.6c94.2 0 170.6-76.4 170.6-170.6s-76.4-170.6-170.6-170.6zM846.8 721.4c0-33.91-27.49-61.4-61.4-61.4s-61.4 27.49-61.4 61.4c0 33.91 27.49 61.4 61.4 61.4s61.4-27.49 61.4-61.4z" />
<glyph unicode="&#xeab0;" glyph-name="github" d="M512.008 947.358c-282.738 0-512.008-229.218-512.008-511.998 0-226.214 146.704-418.132 350.136-485.836 25.586-4.738 34.992 11.11 34.992 24.632 0 12.204-0.48 52.542-0.696 95.324-142.448-30.976-172.504 60.41-172.504 60.41-23.282 59.176-56.848 74.916-56.848 74.916-46.452 31.778 3.51 31.124 3.51 31.124 51.4-3.61 78.476-52.766 78.476-52.766 45.672-78.27 119.776-55.64 149.004-42.558 4.588 33.086 17.852 55.68 32.506 68.464-113.73 12.942-233.276 56.85-233.276 253.032 0 55.898 20.004 101.574 52.76 137.428-5.316 12.9-22.854 64.972 4.952 135.5 0 0 43.006 13.752 140.84-52.49 40.836 11.348 84.636 17.036 128.154 17.234 43.502-0.198 87.336-5.886 128.256-17.234 97.734 66.244 140.656 52.49 140.656 52.49 27.872-70.528 10.35-122.6 5.036-135.5 32.82-35.856 52.694-81.532 52.694-137.428 0-196.654-119.778-239.95-233.79-252.624 18.364-15.89 34.724-47.046 34.724-94.812 0-68.508-0.596-123.644-0.596-140.508 0-13.628 9.222-29.594 35.172-24.566 203.322 67.776 349.842 259.626 349.842 485.768 0 282.78-229.234 511.998-511.992 511.998z" />
</font>
</defs>
</svg>
